PathFileType	4	(X/Y/Z)	C:\Git\research_data\torsion_deformities_healthy_kinematics\simulations\TD07\pre\static_01\markers.trc
DataRate	CameraRate	NumFrames	NumMarkers	Units	OrigDataRate	OrigDataStartFrame	OrigNumFrames
200.000000	200.000000	4	34	mm	200.000000	30	120
Frame#	Time	C7			T10			CLAV			STRN			RBAK			LASI			RASI			SACR			RT1			RT2			RT3			RKNE			RS1			RS2			RS3			RANK			RHEE			RTOE			RM5D			LT1			LT2			LT3			LKNE			LS1			LS2			LS3			LANK			LHEE			LTOE			LM5D			RANKM			LANKM			RKNEM			LKNEM			
		X1	Y1	Z1	X2	Y2	Z2	X3	Y3	Z3	X4	Y4	Z4	X5	Y5	Z5	X6	Y6	Z6	X7	Y7	Z7	X8	Y8	Z8	X9	Y9	Z9	X10	Y10	Z10	X11	Y11	Z11	X12	Y12	Z12	X13	Y13	Z13	X14	Y14	Z14	X15	Y15	Z15	X16	Y16	Z16	X17	Y17	Z17	X18	Y18	Z18	X19	Y19	Z19	X20	Y20	Z20	X21	Y21	Z21	X22	Y22	Z22	X23	Y23	Z23	X24	Y24	Z24	X25	Y25	Z25	X26	Y26	Z26	X27	Y27	Z27	X28	Y28	Z28	X29	Y29	Z29	X30	Y30	Z30	X31	Y31	Z31	X32	Y32	Z32	X33	Y33	Z33	X34	Y34	Z34	

31	0.15	654.6033325195311	1227.173706054688	349.2854309082031	662.1655273437499	1004.5927734375	345.0938720703124	669.2741088867186	1200.049194335938	222.8333892822265	670.2174072265624	1067.721435546875	154.6578979492187	756.0687866210936	1094.972900390625	360.8138427734374	547.2868041992188	796.9093627929688	206.5225067138672	803.1674194335938	833.2911376953125	199.0670013427734	672.3911743164062	853.7134399414062	356.7200012207031	865.410400390625	607.1910400390625	310.0037841796874	863.3654174804688	546.7621459960938	337.1575927734374	875.5419921875	545.6612548828125	288.8564453124999	881.6669311523438	442.2263488769532	299.4287719726562	915.5682983398438	350.4129943847657	351.5698242187499	922.0355834960938	287.3672180175782	377.0482788085937	937.852783203125	292.9106140136719	326.7774963378906	962.244384765625	87.28381347656256	321.9911804199218	922.9437255859375	45.92424774169928	358.8031005859374	978.9489135742188	47.60889816284185	167.4615783691406	1003.123168945312	34.40806198120124	257.7547912597656	482.5511779785156	615.359130859375	254.4972991943359	473.1658630371093	559.3890380859375	290.1209106445312	482.3909912109374	550.813720703125	239.596923828125	452.9634399414062	421.8698425292969	304.5590515136719	400.9601135253906	310.1625061035156	318.662109375	386.0828857421875	255.3725280761719	353.458984375	381.379638671875	248.7261962890625	302.6747131347656	348.7229309082031	71.24244689941409	335.0452880859375	387.106201171875	43.32952880859377	357.6854858398438	297.914306640625	42.70986557006838	178.6878509521484	286.2162780761719	29.76050949096681	273.3358154296875	888.3550415039062	74.98593139648443	278.2706298828124	407.2834167480469	67.47821807861331	271.891357421875	792.880859375	404.8125610351563	267.8771667480468	542.3799438476562	383.0048522949219	261.3173522949218	
32	0.155	654.5696411132811	1227.213256835938	349.2573852539062	662.1916503906249	1004.602905273438	345.1000366210937	669.2428588867186	1200.059326171875	222.8100128173828	670.1984863281249	1067.732299804688	154.6292114257812	756.0800781249999	1095.022705078125	360.7921752929687	547.2803955078125	796.921875	206.5833740234375	803.161376953125	833.2870483398438	199.1039886474609	672.3963012695312	853.7207641601562	356.7669982910156	865.3956298828125	607.19482421875	310.0341796874999	863.3436889648438	546.7689208984375	337.1870727539062	875.5396728515625	545.664306640625	288.8845214843749	881.6605224609375	442.2303466796876	299.4580078124999	915.576904296875	350.4095153808594	351.6040954589843	922.0447998046875	287.3580932617188	377.0582885742187	937.851318359375	292.9169311523438	326.7910766601562	962.2486572265625	87.28533935546881	321.9902343749999	922.9462280273438	45.92399215698248	358.8059692382812	978.9476928710938	47.61081695556646	167.4623718261718	1003.120849609375	34.40848922729499	257.7597045898437	482.5398559570312	615.3681030273438	254.5507659912109	473.1544494628906	559.3931274414062	290.1694946289062	482.3851928710937	550.8202514648438	239.6485443115234	452.9548645019531	421.8719482421875	304.5853881835938	400.9533386230469	310.1618957519531	318.6796875	386.0819702148438	255.375717163086	353.4666137695312	381.3753662109375	248.727035522461	302.6875915527344	348.7258911132812	71.24072265625003	335.0466003417969	387.1088562011719	43.32707214355471	357.6833190917969	297.9131164550781	42.70899581909182	178.6888427734375	286.2167358398438	29.75893211364748	273.3368530273438	888.35791015625	74.98737335205084	278.2753906249999	407.2831726074219	67.48060607910159	271.8927307128906	792.8726806640625	404.8118896484376	267.9082336425781	542.3712158203125	383.0136718750001	261.3447570800781	
33	0.16	654.5366821289061	1227.252319335938	349.2293395996093	662.2178955078124	1004.612854003906	345.1056823730468	669.2117309570311	1200.0693359375	222.7860107421875	670.1787719726561	1067.743286132812	154.6002044677734	756.0912475585936	1095.0712890625	360.7698059082031	547.273681640625	796.934326171875	206.64306640625	803.1549682617188	833.282958984375	199.1387023925781	672.40185546875	853.7278442382812	356.8123168945312	865.3807983398438	607.1986694335938	310.0626220703124	863.3212890625	546.7756958007812	337.2166137695312	875.5372314453125	545.6672973632812	288.9107971191406	881.6541137695312	442.2343444824219	299.4858398437499	915.5852661132812	350.4062805175782	351.6369323730468	922.0538330078125	287.3495483398438	377.0675354003906	937.849853515625	292.9231872558594	326.8038940429687	962.2528076171875	87.28688049316412	321.9892272949218	922.9485473632812	45.92374038696295	358.8087463378906	978.946533203125	47.61262512207037	167.463150024414	1003.11865234375	34.408920288086	257.7643432617187	482.5284729003906	615.3770141601562	254.6031646728515	473.1431579589843	559.397216796875	290.2170715332031	482.3788146972656	550.8269653320312	239.698974609375	452.9463500976562	421.8740539550781	304.6109924316406	400.9466247558594	310.1613159179688	318.69677734375	386.0811157226562	255.3788604736328	353.4739379882812	381.3711853027344	248.7278594970703	302.7001037597656	348.7289733886719	71.23905181884768	335.0478210449219	387.1115112304688	43.32471466064455	357.68115234375	297.9119262695312	42.70813369750979	178.6897888183593	286.2171936035156	29.75741195678713	273.3378601074219	888.3606567382812	74.98873901367193	278.2800598144531	407.282958984375	67.48291778564456	271.8939819335938	792.8645629882812	404.8112182617188	267.9382019042968	542.362548828125	383.0223693847657	261.3712768554687	
34	0.165	654.5043334960936	1227.290893554688	349.2013244628906	662.2441406249999	1004.622680664062	345.1108093261718	669.1807861328124	1200.079345703125	222.7613830566406	670.1582641601561	1067.754272460938	154.5708923339843	756.1023559570311	1095.118774414062	360.7467041015624	547.2665405273438	796.94677734375	206.7015838623047	803.1480712890625	833.2788696289062	199.1711273193359	672.4077758789062	853.7348022460938	356.8558654785156	865.3660278320312	607.20263671875	310.0891418457031	863.2981567382812	546.7824096679688	337.2462463378906	875.53466796875	545.6702880859375	288.9353027343749	881.647705078125	442.2383728027344	299.5122985839843	915.5933837890625	350.4032592773438	351.6682739257812	922.0626220703125	287.3415832519532	377.0759582519531	937.8483276367188	292.9294433593751	326.8159179687499	962.2567138671875	87.28844451904303	321.9882507324218	922.9508666992188	45.92350006103521	358.8114318847656	978.9453125	47.61431503295904	167.4639434814453	1003.116638183594	34.40935516357428	257.7686767578124	482.5170288085937	615.3858642578125	254.6545257568359	473.1319274902343	559.4013061523438	290.2636413574218	482.3718872070312	550.8338012695312	239.7481994628906	452.9378967285156	421.8761596679688	304.6358032226562	400.9400329589844	310.1607971191406	318.7133483886719	386.0802917480469	255.3819580078125	353.48095703125	381.3670349121094	248.7286682128907	302.7122497558594	348.7321166992188	71.23743438720706	335.0490112304688	387.1141357421875	43.32245254516604	357.6790466308594	297.9107360839844	42.70727920532229	178.6907043457031	286.2176818847656	29.75594520568849	273.3388366699219	888.3632202148438	74.99004364013678	278.2846374511718	407.2828063964844	67.48516082763675	271.8951721191406	792.8563842773438	404.8104858398438	267.9670410156249	542.3539428710938	383.0309753417969	261.3969116210937	
